# xmcd
#
# Track frame offsets:
#	150
#	12349
#	24815
#	36978
#	49959
#	60289
#	74725
#	85600
#	100004
#	113175
#	126402
#	139966
#	149398
#	161993
#	174350
#	187285
#	198079
#	209595
#
# Disc length: 2984
#
# Revision: 1
# Processed by: cddbd v1.5.1PL0 Copyright (c) Steve Scherf et al.
# Submitted via: CDex 1.51
# Normalized: r0:TDELIM( - )
#
DISCID=0b0ba612
DTITLE=Various Artist - You Done Me Wrong (Vintage Country Cheating Songs 1929-1952)
DYEAR=2004
DGENRE=Country
TTITLE0=Hank Williams - Your Cheatin' Heart
TTITLE1=Jenny Lou Carson and Her Tumbleweek Troubadors - I'll Never Trust You Again
TTITLE2=Tex Ritter - You Two-Timed Me One Time Too Often
TTITLE3=The Carter Family - Bury Me Under The Weeping Willow
TTITLE4=Jimmie Rodgers - I'm Sorry We Met
TTITLE5=Red Foley - Never Trust A Woman
TTITLE6=Bob Willis and His Texas Playboys - I'm Gonna Be Boss
TTITLE7=Bill Boyd and The Cowboy Ramblers - Shame On You
TTITLE8=Tex Ritter - When You Leave, Don't Slam The Door
TTITLE9=Sons Of The Pioneers - Teardrops In My Heart
TTITLE10=The Texas Wanderers - Sundown Blues
TTITLE11=Red Foley - Cheatin' On Your Baby
TTITLE12=Bob Willis and His Texas Playboys - If He's Movin' In
TTITLE13=Jimmie Rodgers - She Was Happy Till She Met You
TTITLE14=The Carter Family - Are You Tired Of Me, My Darlin'?
TTITLE15=Hank Penny - Sweet Talkin' Mama
TTITLE16=Eddy Arnold - Bouquet Of Roses
TTITLE17=Hank Williams - Men With Broken Hearts
EXTD=YEAR: 2004
EXTT0=
EXTT1=
EXTT2=
EXTT3=
EXTT4=
EXTT5=
EXTT6=
EXTT7=
EXTT8=
EXTT9=
EXTT10=
EXTT11=
EXTT12=
EXTT13=
EXTT14=
EXTT15=
EXTT16=
EXTT17=
PLAYORDER=
